<svg width="617" height="619" viewBox="0 0 617 619" fill="none" xmlns="http://www.w3.org/2000/svg">
<path d="M609.108 7.08611C604.694 2.6573 598.515 0 591.453 0H24.7174C10.5932 0 0 11.5149 0 24.8014V593.461C0 600.547 2.64829 606.748 7.06212 611.176L172.139 445.539C167.725 441.11 165.077 434.91 165.077 427.824V190.439C165.077 176.267 176.553 165.638 189.795 165.638H426.376C433.438 165.638 439.617 168.295 444.031 172.724L609.108 7.08611Z" fill="#076283"/>
<path d="M609.108 7.08594L444.031 172.724C445.796 174.495 448.445 178.038 449.327 180.695C451.093 183.353 451.093 188.667 451.093 190.439V427.823C451.093 429.595 451.093 438.453 444.031 445.539C436.969 452.625 428.141 452.625 426.376 452.625H189.794C188.029 452.625 183.615 452.625 180.967 450.853C177.436 449.082 174.787 447.31 172.139 444.653L7.06201 610.291C11.4758 614.719 17.6552 618.262 24.7173 618.262H591.453C605.577 618.262 616.17 606.747 616.17 593.461V24.8012C616.17 17.7151 613.522 11.5148 609.108 7.08594Z" fill="#2D2C4E"/>
</svg>
